<svg width="2796" height="2011" xmlns="http://www.w3.org/2000/svg" xmlns:xlink="http://www.w3.org/1999/xlink" xml:space="preserve" overflow="hidden"><g transform="translate(-330 -291)"><path d="M3125.97 2301.97C2981.94 2280.89 2843.42 2262.72 2710.44 2247.45L2763.03 2162.41C2745.3 2157.18 2667.41 2205.66 2667.41 2205.66L2736.44 1958.41C2647.28 1966.99 2601.91 2219.56 2601.91 2219.56L2502.3 2133.64 2550.52 2229.95C2143.5 2187.96 1791.97 2171.47 1496.3 2169.56L1541.31 2096.78C1523.58 2091.54 1445.69 2140.02 1445.69 2140.02L1514.72 1892.78C1425.55 1901.36 1380.19 2153.93 1380.19 2153.93L1280.58 2068.01 1331.65 2170.01C1083.77 2173.01 881.635 2186.23 725.613 2201.65 771.142 2088.15 925.771 1980.71 925.771 1980.71 807.691 2009.55 745.744 2058.5 713.373 2104.25 710.898 1963.83 727.545 1703.6 851.218 1415.97 851.218 1415.97 607.091 1859.2 638.19 2157.61L641.906 2210.6C434.994 2234.43 330.966 2259.74 330.966 2259.74Z" fill="#3F3D56" fill-rule="evenodd"/><path d="M1816.97 372.459 1816.97 2163.53C1816.92 2207.96 1780.91 2243.96 1736.48 2243.97L1009.45 2243.97C965.076 2244.05 929.043 2208.14 928.966 2163.76 928.966 2163.69 928.966 2163.61 928.966 2163.53L928.966 372.459C928.961 328.009 964.988 291.972 1009.43 291.969 1009.44 291.969 1009.44 291.969 1009.45 291.969L1118.25 291.969 1118.25 305.923C1118.24 342.523 1147.9 372.199 1184.5 372.211L1554.28 372.211C1568.42 372.241 1582.2 367.707 1593.56 359.279 1595.86 357.607 1598.04 355.781 1600.08 353.808 1613.16 341.316 1620.55 324.01 1620.53 305.923L1620.53 291.969 1736.48 291.969C1780.92 291.955 1816.95 327.97 1816.97 372.41 1816.97 372.426 1816.97 372.443 1816.97 372.459Z" fill="#3F3D56" fill-rule="evenodd"/><path d="M1151 590C1151 600.494 1142.27 609 1131.5 609 1120.73 609 1112 600.494 1112 590 1112 579.507 1120.73 571 1131.5 571 1142.27 571 1151 579.507 1151 590Z" fill="#F2F2F2" fill-rule="evenodd"/><path d="M1600.47 352.969C1598.43 354.944 1596.26 356.773 1593.97 358.447 1641.77 442.837 1722.66 503.243 1816.97 524.969L1816.97 516.337C1725.22 494.625 1646.71 435.383 1600.47 352.969Z" fill="#51C896" fill-rule="evenodd"/><path d="M1435.02 371.969 1425.97 371.969C1491.4 538.136 1640.34 656.98 1816.97 683.969L1816.97 675.414C1644.99 648.72 1499.83 533.395 1435.02 371.969Z" fill="#51C896" fill-rule="evenodd"/><path d="M1267.7 371.969 1258.97 371.969C1332.02 625.551 1552.43 814.314 1816.97 844.969L1816.97 836.538C1557.02 806.022 1340.39 620.852 1267.7 371.969Z" fill="#51C896" fill-rule="evenodd"/><path d="M1068 733.011 1062.99 733.011 1062.99 728 1062.01 728 1062.01 733.011 1057 733.011 1057 733.99 1062.01 733.99 1062.01 739 1062.99 739 1062.99 733.99 1068 733.99 1068 733.011Z" fill="#F2F2F2" fill-rule="evenodd"/><path d="M1408 482.011 1402.99 482.011 1402.99 477 1402.01 477 1402.01 482.011 1397 482.011 1397 482.99 1402.01 482.99 1402.01 488 1402.99 488 1402.99 482.99 1408 482.99 1408 482.011Z" fill="#F2F2F2" fill-rule="evenodd"/><path d="M1118 932.011 1112.99 932.011 1112.99 927 1112.01 927 1112.01 932.011 1107 932.011 1107 932.99 1112.01 932.99 1112.01 938 1112.99 938 1112.99 932.99 1118 932.99 1118 932.011Z" fill="#F2F2F2" fill-rule="evenodd"/><path d="M1350 786.011 1344.99 786.011 1344.99 781 1344.01 781 1344.01 786.011 1339 786.011 1339 786.99 1344.01 786.99 1344.01 792 1344.99 792 1344.99 786.99 1350 786.99 1350 786.011Z" fill="#F2F2F2" fill-rule="evenodd"/><path d="M1682 877.011 1676.99 877.011 1676.99 872 1676.01 872 1676.01 877.011 1671 877.011 1671 877.99 1676.01 877.99 1676.01 883 1676.99 883 1676.99 877.99 1682 877.99 1682 877.011Z" fill="#F2F2F2" fill-rule="evenodd"/><path d="M1635 637C1635 643.075 1629.85 648 1623.5 648 1617.15 648 1612 643.075 1612 637 1612 630.925 1617.15 626 1623.5 626 1629.85 626 1635 630.925 1635 637Z" fill="#FF6584" fill-rule="evenodd"/><path d="M1227.26 895.969 1220.97 896.936C1222.93 909.475 1224.48 922.291 1225.62 934.969L1231.97 934.417C1230.83 921.573 1229.25 908.647 1227.26 895.969Z" fill="#E6E6E6" fill-rule="evenodd"/><path d="M1210.06 820.969 1203.97 822.826C1207.65 835.022 1210.94 847.523 1213.74 859.969L1219.97 858.556C1217.11 845.971 1213.77 833.331 1210.06 820.969Z" fill="#E6E6E6" fill-rule="evenodd"/><path d="M1182.82 747.969 1176.97 750.622C1182.34 762.202 1187.38 774.085 1191.95 785.969L1197.97 783.73C1193.35 771.709 1188.28 759.659 1182.82 747.969Z" fill="#E6E6E6" fill-rule="evenodd"/><path d="M1145.32 679.968 1139.97 683.426C1146.78 694.335 1153.32 705.638 1159.39 716.969L1164.97 713.876C1158.84 702.405 1152.22 690.99 1145.32 679.968Z" fill="#E6E6E6" fill-rule="evenodd"/><path d="M1099.82 617.969 1094.97 622.071C1103.23 631.707 1111.27 641.783 1118.86 651.969L1123.97 648.198C1116.31 637.901 1108.19 627.715 1099.82 617.969Z" fill="#E6E6E6" fill-rule="evenodd"/><path d="M1045.29 562.969 1040.96 567.66C1050.69 576.083 1060.22 584.944 1069.3 593.969L1073.97 589.552C1064.77 580.417 1055.13 571.474 1045.29 562.969Z" fill="#E6E6E6" fill-rule="evenodd"/><path d="M984.535 514.969 980.966 520.268C991.535 527.435 1001.99 535.077 1012.04 542.969L1015.97 537.921C1005.78 529.945 995.215 522.22 984.535 514.969Z" fill="#E6E6E6" fill-rule="evenodd"/><path d="M928.966 481.969 928.966 489.169C935.645 492.631 942.268 496.258 948.752 499.969L951.966 494.458C944.42 490.138 936.751 485.976 928.966 481.969Z" fill="#E6E6E6" fill-rule="evenodd"/><path d="M1225.97 1493.91C1226.99 1487.67 1227.92 1481.3 1228.74 1474.97L1234.97 1475.81C1234.14 1482.21 1233.19 1488.65 1232.16 1494.97Z" fill="#E6E6E6" fill-rule="evenodd"/><path d="M1207.96 1568.07 1214.29 1569.97C1218.26 1557.64 1221.85 1545.02 1224.96 1532.44L1218.52 1530.97C1215.43 1543.41 1211.91 1555.88 1207.96 1568.07Z" fill="#E6E6E6" fill-rule="evenodd"/><path d="M1179.97 1639.26 1185.72 1641.97C1191.2 1630.32 1196.32 1618.31 1200.97 1606.29L1195.05 1603.97C1190.45 1615.86 1185.39 1627.74 1179.97 1639.26Z" fill="#E6E6E6" fill-rule="evenodd"/><path d="M1142.97 1706.54 1148.22 1709.97C1155.14 1699.28 1161.78 1688.2 1167.97 1677.05L1162.51 1673.97C1156.4 1684.99 1149.82 1695.95 1142.97 1706.54Z" fill="#E6E6E6" fill-rule="evenodd"/><path d="M1096.97 1767.79 1101.74 1771.97C1110.13 1762.21 1118.26 1752.05 1125.97 1741.78L1120.92 1737.97C1113.32 1748.12 1105.27 1758.15 1096.97 1767.79Z" fill="#E6E6E6" fill-rule="evenodd"/><path d="M1042.97 1822.19 1047.09 1826.97C1056.66 1818.49 1066.02 1809.55 1074.97 1800.47L1070.54 1795.97C1061.7 1804.96 1052.42 1813.78 1042.97 1822.19Z" fill="#E6E6E6" fill-rule="evenodd"/><path d="M981.966 1868.56 985.464 1873.97C996.156 1866.75 1006.78 1859.06 1016.97 1851.14L1013.14 1845.97C1003.05 1853.83 992.556 1861.43 981.966 1868.56Z" fill="#E6E6E6" fill-rule="evenodd"/><path d="M951.967 1893.77C944.435 1898.34 936.742 1902.77 928.967 1906.97L928.967 1899.45C935.685 1895.78 942.349 1891.9 948.878 1887.97Z" fill="#E6E6E6" fill-rule="evenodd"/><path d="M1227.97 975.084 1233.88 974.969C1233.99 981.327 1234 987.718 1233.91 993.969L1227.99 993.871C1228.08 987.691 1228.07 981.371 1227.97 975.084Z" fill="#E6E6E6" fill-rule="evenodd"/><path d="M957 1125 1606.7 1125C1707.38 1125 1789 1206.84 1789 1307.8L1789 1332 1789 1332 1139.3 1332C1038.62 1332 957 1250.16 957 1149.2L957 1125 957 1125Z" fill="#FFFFFF" fill-rule="evenodd"/><path d="M1388.41 2241.97C1387.78 2240.93 1372.83 2215.96 1367.64 2164.09 1362.89 2116.51 1365.95 2036.3 1407.52 1924.42 1486.28 1712.46 1389.37 1541.45 1388.38 1539.74L1393.16 1536.97C1393.41 1537.4 1418.42 1581 1433.19 1650.43 1452.71 1742.48 1445.61 1838.19 1412.7 1926.35 1334.07 2137.94 1392.53 2238.1 1393.13 2239.09Z" fill="#F2F2F2" fill-rule="evenodd"/><path d="M1393 1491C1393 1510.88 1376.88 1527 1357 1527 1337.12 1527 1321 1510.88 1321 1491 1321 1471.12 1337.12 1455 1357 1455 1376.88 1455 1393 1471.12 1393 1491Z" fill="#51C896" fill-rule="evenodd"/><path d="M1507 1624C1507 1643.88 1490.88 1660 1471 1660 1451.12 1660 1435 1643.88 1435 1624 1435 1604.12 1451.12 1588 1471 1588 1490.88 1588 1507 1604.12 1507 1624Z" fill="#F2F2F2" fill-rule="evenodd"/><path d="M1429 1712.5C1429 1732.11 1412.88 1748 1393 1748 1373.12 1748 1357 1732.11 1357 1712.5 1357 1692.89 1373.12 1677 1393 1677 1412.88 1677 1429 1692.89 1429 1712.5Z" fill="#51C896" fill-rule="evenodd"/><path d="M1523 1787C1523 1806.88 1506.88 1823 1487 1823 1467.12 1823 1451 1806.88 1451 1787 1451 1767.12 1467.12 1751 1487 1751 1506.88 1751 1523 1767.12 1523 1787Z" fill="#51C896" fill-rule="evenodd"/><path d="M1402 1903C1402 1922.88 1385.88 1939 1366 1939 1346.12 1939 1330 1922.88 1330 1903 1330 1883.12 1346.12 1867 1366 1867 1385.88 1867 1402 1883.12 1402 1903Z" fill="#F2F2F2" fill-rule="evenodd"/><path d="M1409.74 2242.97C1409.74 2242.97 1373.63 2154.4 1481.97 2087.97Z" fill="#F2F2F2" fill-rule="evenodd"/><path d="M1365.97 2241.97C1365.97 2241.97 1349.6 2147.16 1222.97 2147.97Z" fill="#F2F2F2" fill-rule="evenodd"/><path d="M1444 1229C1444 1351.05 1345.06 1450 1223 1450 1100.95 1450 1002 1351.05 1002 1229 1002 1106.94 1100.95 1008 1223 1008 1345.06 1008 1444 1106.94 1444 1229Z" fill="#51C896" fill-rule="evenodd" fill-opacity="0.2"/><path d="M1378 1228.5C1378 1314.38 1308.38 1384 1222.5 1384 1136.62 1384 1067 1314.38 1067 1228.5 1067 1142.62 1136.62 1073 1222.5 1073 1308.38 1073 1378 1142.62 1378 1228.5Z" fill="#51C896" fill-rule="evenodd" fill-opacity="0.2"/><path d="M1325 1229C1325 1285.89 1279.11 1332 1222.5 1332 1165.89 1332 1120 1285.89 1120 1229 1120 1172.11 1165.89 1126 1222.5 1126 1279.11 1126 1325 1172.11 1325 1229Z" fill="#51C896" fill-rule="evenodd"/><path d="M1240.97 1206.58C1240.97 1196.3 1232.69 1187.97 1222.47 1187.97 1212.26 1187.97 1203.97 1196.29 1203.97 1206.57 1203.96 1212.16 1206.47 1217.47 1210.78 1221L1203.97 1268.97 1240.97 1268.97 1234.15 1221C1238.47 1217.47 1240.97 1212.17 1240.97 1206.58Z" fill="#FFFFFF" fill-rule="evenodd"/><path d="M2255.82 438.621C2255.82 438.621 2194.18 383.344 2111.28 487.521 2028.38 591.696 1898.73 642.721 1868.97 683.117 1868.97 683.117 1992.25 632.091 2034.76 610.832 2077.27 589.57 2075.15 593.821 2075.15 593.821 2075.15 593.821 2017.76 634.218 2007.13 674.613 1996.5 715.007 2005 749.025 1985.87 789.42 1966.74 829.814 2351.47 817.058 2351.47 817.058 2351.47 817.058 2389.73 751.15 2379.1 683.117 2368.47 615.084 2374.85 447.125 2255.82 438.621Z" fill="#2F2E41" fill-rule="evenodd"/><path d="M2138.97 612.969C2138.97 612.969 2152.34 706.887 2095.03 727.971 2037.71 749.053 2058.73 777.803 2058.73 777.803L2144.7 819.969 2236.4 791.221 2266.97 745.221C2266.97 745.221 2217.29 733.72 2230.67 699.22 2244.04 664.718 2247.86 653.22 2247.86 653.22Z" fill="#FFB9B9" fill-rule="evenodd"/><path d="M2138.97 612.969C2138.97 612.969 2152.34 706.887 2095.03 727.971 2037.71 749.053 2058.73 777.803 2058.73 777.803L2144.7 819.969 2236.4 791.221 2266.97 745.221C2266.97 745.221 2217.29 733.72 2230.67 699.22 2244.04 664.718 2247.86 653.22 2247.86 653.22Z" fill="#000000" fill-rule="evenodd" fill-opacity="0.101961"/><path d="M2380.61 880.969C2380.61 880.969 2367.18 1057.09 2371.02 1064.74 2374.85 1072.4 2371.02 1338.49 2371.02 1338.49 2371.02 1338.49 2397.87 1482.06 2363.34 1489.72 2328.82 1497.37 2336.49 1328.92 2336.49 1328.92L2301.97 1106.86 2305.8 886.711Z" fill="#FFB9B9" fill-rule="evenodd"/><path d="M2380.61 880.969C2380.61 880.969 2367.18 1057.09 2371.02 1064.74 2374.85 1072.4 2371.02 1338.49 2371.02 1338.49 2371.02 1338.49 2397.87 1482.06 2363.34 1489.72 2328.82 1497.37 2336.49 1328.92 2336.49 1328.92L2301.97 1106.86 2305.8 886.711Z" fill="#000000" fill-rule="evenodd" fill-opacity="0.101961"/><path d="M2007.31 1410.97C2007.31 1410.97 1944.09 1650.5 1946.01 1767.39 1947.92 1884.28 1972.83 2047.16 1972.83 2047.16 1972.83 2047.16 1976.66 2118.06 1970.91 2125.73 1965.16 2133.39 1999.65 2165.97 1999.65 2165.97L2036.04 2144.89 2049.45 2129.56 2049.45 2116.15C2049.45 2116.15 2028.38 2050.99 2045.62 1999.26 2062.86 1947.52 2072.44 1817.21 2055.2 1776.97L2173.97 1424.38Z" fill="#FFB9B9" fill-rule="evenodd"/><path d="M2003.21 2135.21C2003.21 2135.21 1980.26 2106.36 1964.96 2115.98 1949.66 2125.59 1924.8 2190.98 1924.8 2190.98 1924.8 2190.98 1838.74 2273.67 1899.94 2277.51 1961.13 2281.36 1987.91 2260.2 1995.56 2244.82 2003.21 2229.44 2073.97 2189.05 2073.97 2189.05 2073.97 2189.05 2066.32 2115.98 2054.84 2114.06 2043.37 2112.13 2026.16 2142.9 2026.16 2142.9Z" fill="#2F2E41" fill-rule="evenodd"/><path d="M2215.74 1426.43 2215.74 1663.95C2215.97 1692.77 2217.88 1721.55 2221.48 1750.15 2227.22 1792.29 2188.97 2106.42 2188.97 2106.42L2192.79 2161.97 2240.61 2158.14 2246.35 2110.25 2315.2 1899.55C2315.2 1899.55 2338.15 1771.22 2326.67 1723.33 2315.2 1675.44 2385.97 1368.97 2385.97 1368.97Z" fill="#FFB9B9" fill-rule="evenodd"/><path d="M2177.04 2148.96 2191.23 2145.87C2191.23 2145.87 2201.94 2122.11 2215.35 2127.87 2224.78 2132.22 2233.72 2137.58 2242.01 2143.86L2247.91 2154.71C2247.91 2154.71 2261.32 2183.47 2278.55 2202.64 2295.8 2221.81 2314.95 2263.99 2286.22 2267.83 2257.49 2271.66 2219.18 2273.58 2207.69 2263.99 2196.2 2254.41 2203.86 2239.07 2192.36 2235.23 2180.87 2231.4 2171.3 2219.9 2173.21 2216.06 2175.13 2212.23 2177.04 2148.96 2177.04 2148.96Z" fill="#2F2E41" fill-rule="evenodd"/><path d="M2301 594C2301 640.944 2262.94 679 2216 679 2169.06 679 2131 640.944 2131 594 2131 547.056 2169.06 509 2216 509 2262.94 509 2301 547.056 2301 594Z" fill="#FFB9B9" fill-rule="evenodd"/><path d="M2054.97 742.811 2080.26 733.969C2080.26 733.969 2070.28 750.479 2123.9 760.066 2177.51 769.653 2233.03 773.046 2257.93 741.632 2257.93 741.632 2267.5 737.057 2280.9 750.479 2294.31 763.902 2301.97 760.066 2301.97 760.066L2292.39 809.917 2273.24 901.948 2248.35 970.969 2177.51 955.631 2100.92 900.03 2072.2 825.255 2072.2 756.23Z" fill="#51C896" fill-rule="evenodd"/><path d="M2288.76 769.514 2307.94 756.091C2307.94 756.091 2373.13 767.596 2376.97 798.275L2327.11 894.141C2337.28 920.818 2336.59 950.415 2325.2 976.588 2306.02 1020.69 2307.94 1030.27 2307.94 1030.27L2294.52 1087.8 2051 1106.97C2051 1106.97 2041.42 1083.96 2037.58 1080.13 2033.75 1076.29 2033.75 1062.87 2037.58 1062.87 2041.42 1062.87 2037.58 1057.12 2033.75 1051.37 2029.91 1045.61 2027.99 1043.7 2033.75 1036.03 2039.5 1028.36 2024.16 959.332 2024.16 959.332L2024.16 884.554 1958.97 798.275C1958.97 798.275 1981.98 763.763 1993.48 759.927 2004.98 756.091 2059.71 740.969 2059.71 740.969L2072.09 759.202 2089.35 897.977 2114.28 982.341 2219.23 964.51 2260 896.059 2286.85 815.531Z" fill="#51C896" fill-rule="evenodd"/><path d="M2361.21 786.969 2376.63 798.468C2376.63 798.468 2390.13 905.785 2386.27 913.45 2382.42 921.115 2314.95 928.783 2313.02 924.949 2311.09 921.115 2361.21 786.969 2361.21 786.969Z" fill="#51C896" fill-rule="evenodd"/><path d="M2045.6 733.626 2064.71 859.966C2064.71 859.966 2047.51 1047.56 2051.33 1085.85L2055.15 1097.33C2055.15 1097.33 2047.51 1093.51 2045.6 1101.16 2043.68 1108.82 2045.6 1133.7 2045.6 1133.7 2045.6 1133.7 2034.13 1145.19 2030.31 1208.36 2026.48 1271.53 1980.61 1422.76 1997.81 1428.5 2015.01 1434.24 2118.23 1462.96 2173.66 1457.21 2229.08 1451.47 2427.86 1384.47 2425.95 1367.24 2424.04 1350.02 2328.47 1106.9 2328.47 1106.9 2328.47 1106.9 2311.27 1078.19 2311.27 1074.36 2311.27 1070.53 2334.21 1055.22 2328.47 1039.9 2322.74 1024.59 2292.16 863.795 2292.16 863.795L2313.18 748.939 2284.51 741.282 2263.49 852.309C2263.49 852.309 2181.3 892.507 2095.29 856.136L2076.18 725.969Z" fill="#2F2E41" fill-rule="evenodd"/><path d="M2136.97 532.517C2136.97 532.517 2279.13 630.815 2317.55 586.484 2355.98 542.154 2250.31 503.606 2250.31 503.606L2161.94 493.969Z" fill="#2F2E41" fill-rule="evenodd"/><path d="M1917.6 1571.59C1950.71 1596.23 1997.53 1589.37 2022.18 1556.27 2046.82 1523.18 2039.96 1476.39 2006.85 1451.75 1973.74 1427.12 1926.92 1433.97 1902.28 1467.07 1886.04 1488.87 1882.93 1517.76 1894.15 1542.51L1698.64 1705.22 1672.61 1674.33 1660.91 1682.16 1647.89 1666.71 1658.59 1657.71 1645.57 1642.27 1628.93 1656.27 1636.95 1665.78 1619.12 1680.79 1611.11 1671.29 1584.97 1693.3 1596.98 1707.56 1606.49 1699.55 1619.51 1714.99 1607.62 1725 1631.65 1753.51 1603.13 1777.53 1632.17 1811.97ZM1966.42 1462.44C1993.62 1464.76 2013.8 1488.7 2011.47 1515.89 2009.15 1543.09 1985.21 1563.25 1958 1560.93 1930.79 1558.6 1910.62 1534.67 1912.94 1507.48 1915.27 1480.28 1939.21 1460.12 1966.42 1462.44Z" fill="#51C896" fill-rule="evenodd"/><path d="M1945.32 903.969C1945.32 903.969 1958.75 1080.08 1954.92 1087.74 1951.08 1095.4 1954.92 1361.48 1954.92 1361.48 1954.92 1361.48 1928.06 1505.06 1962.59 1512.72 1997.11 1520.37 1989.44 1351.91 1989.44 1351.91L2023.97 1129.86 2020.13 909.714Z" fill="#FFB9B9" fill-rule="evenodd"/><path d="M1974.69 792.969 1959.35 798.723C1959.35 798.723 1930.6 919.518 1938.27 919.518 1945.93 919.518 2037.97 931.02 2037.97 927.187 2037.97 923.351 2020.71 829.399 2020.71 829.399Z" fill="#51C896" fill-rule="evenodd"/></g></svg>