<svg width="256" height="256" xmlns="http://www.w3.org/2000/svg" xmlns:xlink="http://www.w3.org/1999/xlink" xml:space="preserve" overflow="hidden"><g transform="translate(-254 -120)"><path d="M381.857 121.407C312.02 121.407 255.407 178.02 255.407 247.857 255.407 317.694 312.02 374.307 381.857 374.307 451.693 374.307 508.307 317.694 508.307 247.857 508.307 178.02 451.693 121.407 381.857 121.407ZM381.857 183.246C406.863 183.246 427.21 203.593 427.21 228.6 427.21 253.609 406.863 273.953 381.857 273.953 356.848 273.953 336.503 253.609 336.503 228.6 336.503 203.593 356.848 183.246 381.857 183.246ZM381.857 357.005C350.567 357.005 322.501 343.279 303.297 321.535 312.225 305.377 326.182 292.097 342.778 284.047 348.423 281.31 355.013 281.355 360.86 284.162 367.444 287.326 374.508 288.928 381.859 288.928 389.208 288.928 396.275 287.323 402.859 284.162 408.712 281.352 415.301 281.31 420.941 284.047 437.537 292.094 451.491 305.377 460.419 321.535 441.212 343.276 413.146 357.005 381.857 357.005Z" fill="#0FA958"/></g></svg>